<?xml version="1.0" encoding="utf-8"?>
<!-- Generator: Adobe Illustrator 26.0.3, SVG Export Plug-In . SVG Version: 6.00 Build 0)  -->
<svg version="1.1" id="Layer_1" xmlns="http://www.w3.org/2000/svg" xmlns:xlink="http://www.w3.org/1999/xlink" x="0px" y="0px"
	 viewBox="0 0 468 103.3" style="enable-background:new 0 0 468 103.3;" xml:space="preserve">
<style type="text/css">
	.st0{fill:url(#SVGID_1_);}
	.st1{fill:url(#SVGID_00000170278152695304429910000011257848734774004411_);}
	.st2{fill:url(#SVGID_00000183934496435383797130000009994284792358416796_);}
	.st3{fill:url(#SVGID_00000064319656118090665720000012724183522589244338_);}
	.st4{fill:url(#SVGID_00000003086551335550649890000006494335063759401657_);}
	.st5{fill:url(#SVGID_00000151509881070968636120000013516847370141035440_);}
	.st6{fill:url(#SVGID_00000000919761657633735770000012161376163940167358_);}
	.st7{fill:#F8A51C;}
	.st8{fill:#0071BB;}
	.st9{fill:url(#SVGID_00000124867232525700892470000012065155401239200690_);}
	.st10{fill:url(#SVGID_00000042012053583850878840000012646069843914875009_);}
	
		.st11{clip-path:url(#SVGID_00000039109210119209421010000005297139538718154408_);fill:url(#SVGID_00000008857598003952549430000001025345498767387070_);}
	
		.st12{clip-path:url(#SVGID_00000010307330523490836960000008029615304354782635_);fill:url(#SVGID_00000114040797718338936090000010113149831707312267_);}
	
		.st13{clip-path:url(#SVGID_00000165933190175519477780000004105263385060612483_);fill:url(#SVGID_00000049928015818711623350000007375739256539304867_);}
	.st14{fill:url(#SVGID_00000160173917890981715760000014651000357289893008_);}
	.st15{fill:url(#SVGID_00000044873776962726374240000016388713243485304736_);}
	.st16{fill:url(#SVGID_00000164474059719443579340000016384679167608150695_);}
	.st17{fill:url(#SVGID_00000070808162738419602090000011550316255296163250_);}
	.st18{fill:url(#SVGID_00000060746759340206807000000002814449504178761659_);}
	.st19{fill:url(#SVGID_00000009590226183665444630000014924301864638579124_);}
	.st20{fill:url(#SVGID_00000147190824446223760870000001767673599310933410_);}
	.st21{fill:#FFFFFF;}
	.st22{fill-rule:evenodd;clip-rule:evenodd;fill:#FFFFFF;}
	.st23{fill-rule:evenodd;clip-rule:evenodd;fill:#0094D9;}
	.st24{fill-rule:evenodd;clip-rule:evenodd;fill:#0071BB;}
</style>
<g>
	<radialGradient id="SVGID_1_" cx="44.367" cy="8.9028" r="5.7431" gradientUnits="userSpaceOnUse">
		<stop  offset="0" style="stop-color:#00ADEE"/>
		<stop  offset="1" style="stop-color:#0071BB"/>
	</radialGradient>
	<path class="st0" d="M36.9,8.1c0.1,0.3,0.1,0.7,0.3,1.1c0.2,0.5,0.5,0.8,0.9,1c0.4,0.2,0.8,0.3,1.2,0.3c0.5,0,1,0,1.5-0.1
		c0.8-0.1,1.5-0.3,2.2-0.5c0.9-0.3,1.8-0.6,2.6-1c0.7-0.3,1.3-0.6,2-1c0.6-0.3,1.2-0.7,1.8-1c0.6-0.3,1.2-0.6,1.7-0.8
		c0.2-0.1,0.4-0.2,0.7-0.3c-0.1,0.1-0.2,0.2-0.3,0.3c-0.5,0.4-1,0.8-1.5,1.2c-0.4,0.3-0.7,0.5-1.1,0.8c-0.6,0.4-1.1,0.7-1.7,1.1
		c-0.8,0.5-1.7,1-2.6,1.4c-0.8,0.4-1.6,0.7-2.5,1c-0.5,0.1-1.1,0.3-1.7,0.4c-0.4,0.1-0.8,0.1-1.2,0.1c-0.6,0-1.1-0.2-1.6-0.5
		c-0.4-0.3-0.7-0.7-0.8-1.2c-0.2-0.5-0.2-1-0.2-1.5C36.9,8.5,36.9,8.3,36.9,8.1z"/>
	
		<radialGradient id="SVGID_00000065756657906184751640000016260216370206307491_" cx="45.0626" cy="11.6122" r="6.0313" gradientUnits="userSpaceOnUse">
		<stop  offset="0" style="stop-color:#00ADEE"/>
		<stop  offset="1" style="stop-color:#0071BB"/>
	</radialGradient>
	<path style="fill:url(#SVGID_00000065756657906184751640000016260216370206307491_);" d="M40.6,14.6c0,0,0,0.1,0,0.1
		C40.5,14.7,40.5,14.6,40.6,14.6c-0.4-0.1-0.7-0.1-1-0.2c-0.4-0.1-0.7-0.3-1-0.5c-0.4-0.3-0.7-0.8-0.9-1.3c-0.2-0.4-0.3-0.9-0.5-1.3
		c0,0,0-0.1,0-0.1c0.2,0.3,0.3,0.6,0.5,0.9c0.2,0.2,0.4,0.4,0.6,0.6c0.3,0.2,0.7,0.4,1.1,0.4c0.3,0,0.5,0.1,0.8,0.1
		c0.3,0,0.6,0,0.9,0c0.4,0,0.7-0.1,1.1-0.1c0.4-0.1,0.8-0.2,1.2-0.3c0.6-0.2,1.1-0.3,1.7-0.5c0.9-0.4,1.9-0.7,2.8-1.1
		c0.9-0.4,1.7-0.9,2.5-1.3c0.6-0.3,1.2-0.7,1.8-1c0.2-0.1,0.5-0.2,0.8-0.4c0,0,0,0,0.1,0c-0.2,0.2-0.4,0.4-0.7,0.6
		c-0.3,0.3-0.7,0.5-1,0.8c-0.3,0.2-0.6,0.5-1,0.7c-0.5,0.3-1,0.7-1.5,1c-0.6,0.4-1.2,0.7-1.9,1.1c-0.6,0.3-1.3,0.6-1.9,0.9
		c-0.6,0.2-1.1,0.5-1.7,0.6c-0.5,0.2-1,0.3-1.5,0.3C41.4,14.5,41,14.5,40.6,14.6z"/>
	
		<radialGradient id="SVGID_00000079476651761805853270000017169286231260184455_" cx="43.649" cy="6.325" r="4.978" gradientUnits="userSpaceOnUse">
		<stop  offset="0" style="stop-color:#00ADEE"/>
		<stop  offset="1" style="stop-color:#0071BB"/>
	</radialGradient>
	<path style="fill:url(#SVGID_00000079476651761805853270000017169286231260184455_);" d="M38.2,4.7C38.1,4.8,38,5,38,5.1
		c-0.2,0.4-0.3,0.7-0.3,1.1c0,0.3,0.1,0.6,0.2,0.9c0.3,0.5,0.8,0.7,1.4,0.7c0.8,0,1.5-0.1,2.3-0.3c0.9-0.2,1.7-0.6,2.5-0.9
		c0.7-0.3,1.4-0.6,2.1-1c0.5-0.2,1-0.5,1.4-0.7c0.5-0.3,1-0.6,1.5-0.9c0.2-0.1,0.4-0.3,0.6-0.4c0.1-0.1,0.2-0.1,0.3-0.1c0,0,0,0,0,0
		c-0.1,0.1-0.2,0.2-0.3,0.3c-0.2,0.1-0.3,0.3-0.5,0.4c-0.5,0.4-1.1,0.9-1.6,1.3c-0.4,0.3-0.8,0.6-1.2,0.8c-0.5,0.3-0.9,0.6-1.4,0.8
		c-0.4,0.2-0.8,0.4-1.2,0.6c-1,0.5-2,0.9-3,1.2c-0.4,0.1-0.7,0.1-1.1,0.2c-0.4,0.1-0.9,0-1.3-0.1c-0.7-0.2-1.1-0.7-1.2-1.4
		c-0.1-0.7,0.1-1.4,0.3-2C37.7,5.3,37.9,5,38.2,4.7C38.1,4.7,38.1,4.7,38.2,4.7C38.1,4.7,38.1,4.7,38.2,4.7z"/>
	
		<radialGradient id="SVGID_00000026875114370298348640000006339837656666107057_" cx="42.99" cy="3.8508" r="3.8691" gradientUnits="userSpaceOnUse">
		<stop  offset="0" style="stop-color:#00ADEE"/>
		<stop  offset="1" style="stop-color:#0071BB"/>
	</radialGradient>
	<path style="fill:url(#SVGID_00000026875114370298348640000006339837656666107057_);" d="M47.8,1.9c-0.2,0.1-0.3,0.3-0.5,0.4
		c-0.4,0.3-0.7,0.7-1.1,1c-0.4,0.3-0.9,0.6-1.3,0.9c-0.4,0.3-0.8,0.5-1.3,0.8c-0.4,0.2-0.9,0.5-1.3,0.7C41.9,5.8,41.4,6,41,6.2
		c-0.5,0.2-1.1,0.3-1.7,0.3c-0.4,0-0.7-0.1-0.9-0.4c-0.1-0.1-0.1-0.2-0.1-0.4c-0.1-0.6,0.1-1.1,0.4-1.5c0.2-0.3,0.5-0.6,0.7-0.9
		c0.1-0.1,0.3-0.2,0.4-0.4c0,0,0,0.1,0,0.1c-0.2,0.3,0.1,0.6,0.4,0.5c0.3,0,0.5-0.1,0.8-0.1c0.6-0.2,1.2-0.4,1.7-0.8
		c0.7-0.4,1.4-0.8,2.1-1.2c0.1-0.1,0.3-0.2,0.4-0.3c0,0,0,0,0,0c-0.3,0.3-0.6,0.5-0.9,0.8c-0.3,0.3-0.6,0.5-1,0.7
		c-0.7,0.5-1.5,1-2.3,1.3c-0.4,0.1-0.8,0.2-1.2,0.2c-0.1,0-0.2,0-0.3,0c-0.2-0.1-0.2-0.3-0.1-0.5c0-0.1,0.1-0.2,0.1-0.2
		c0-0.1,0.1-0.1,0.1-0.2c-0.1,0.1-0.1,0.2-0.2,0.2c-0.2,0.3-0.4,0.6-0.5,0.9c-0.1,0.5,0.1,0.8,0.6,0.9c0.6,0.1,1.2,0,1.7-0.2
		c0.7-0.2,1.4-0.5,2.1-0.8c0.6-0.3,1.1-0.5,1.6-0.8c0.6-0.3,1.2-0.7,1.9-1C47.1,2.3,47.4,2.1,47.8,1.9C47.7,1.9,47.7,1.9,47.8,1.9
		C47.8,1.9,47.8,1.9,47.8,1.9z"/>
	
		<radialGradient id="SVGID_00000163059182606778797430000017989182697720209793_" cx="45.9936" cy="13.711" r="5.5191" gradientUnits="userSpaceOnUse">
		<stop  offset="0" style="stop-color:#00ADEE"/>
		<stop  offset="1" style="stop-color:#0071BB"/>
	</radialGradient>
	<path style="fill:url(#SVGID_00000163059182606778797430000017989182697720209793_);" d="M53.3,11.1c-0.2,0.1-0.3,0.3-0.5,0.4
		c-0.3,0.3-0.6,0.5-1,0.8c-0.7,0.5-1.3,0.9-2,1.4c-0.5,0.3-1.1,0.7-1.6,0.9c-0.6,0.3-1.3,0.6-2,0.9c-0.6,0.3-1.3,0.5-2,0.7
		c-0.4,0.1-0.9,0.2-1.4,0.2c-0.4,0-0.8,0-1.2,0c-0.5-0.1-1-0.2-1.5-0.5c-0.5-0.3-0.9-0.6-1.2-1c0,0,0,0.1,0,0.1c0,0,0,0,0,0
		c-0.1-0.2-0.2-0.4-0.4-0.6c0.1,0.1,0.2,0.1,0.2,0.2c0.1,0.1,0.1,0.2,0.2,0.2c0.2,0.1,0.5,0.3,0.7,0.4c0.3,0.1,0.6,0.2,0.9,0.3
		c0.5,0.1,1,0.2,1.5,0.1c0.7,0,1.5-0.2,2.2-0.3c0.8-0.2,1.5-0.4,2.2-0.7c0.6-0.2,1.2-0.5,1.8-0.8c0.4-0.2,0.8-0.4,1.2-0.6
		c0.6-0.4,1.3-0.7,1.9-1.1C52,11.7,52.6,11.4,53.3,11.1C53.3,11,53.3,11,53.3,11.1C53.3,11,53.3,11,53.3,11.1z"/>
	
		<radialGradient id="SVGID_00000132783901376613490180000008623039338602377349_" cx="47.1849" cy="15.3287" r="4.4169" gradientUnits="userSpaceOnUse">
		<stop  offset="0" style="stop-color:#00ADEE"/>
		<stop  offset="1" style="stop-color:#0071BB"/>
	</radialGradient>
	<path style="fill:url(#SVGID_00000132783901376613490180000008623039338602377349_);" d="M41.3,16.7c0.1,0.1,0.3,0.1,0.4,0.2
		c0.4,0.2,0.9,0.3,1.3,0.3c0.4,0,0.7,0,1.1,0c0.5-0.1,1-0.2,1.5-0.3c0.6-0.2,1.3-0.4,1.9-0.6c0.4-0.2,0.8-0.4,1.3-0.6
		c0.4-0.2,0.8-0.3,1.1-0.5c0.4-0.2,0.8-0.5,1.2-0.7c0.4-0.2,0.7-0.5,1.1-0.7c0.3-0.2,0.5-0.3,0.8-0.5c0,0,0,0,0,0
		c-0.1,0.1-0.2,0.2-0.3,0.3c-0.4,0.4-0.9,0.7-1.4,1.1c-0.3,0.2-0.6,0.5-1,0.7c-0.1,0.1-0.2,0.2-0.3,0.2c-0.3,0.1-0.5,0.2-0.7,0.4
		c-0.8,0.5-1.7,0.9-2.6,1.2c-0.6,0.2-1.2,0.4-1.8,0.4c-0.4,0-0.8,0.1-1.2,0c-0.4,0-0.8-0.1-1.2-0.3c-0.4-0.2-0.8-0.3-1.1-0.5
		C41.4,16.7,41.4,16.7,41.3,16.7C41.3,16.7,41.3,16.7,41.3,16.7z"/>
	
		<radialGradient id="SVGID_00000132775921807129048810000006310606438960890814_" cx="48.5296" cy="16.2244" r="2.7358" gradientUnits="userSpaceOnUse">
		<stop  offset="0" style="stop-color:#00ADEE"/>
		<stop  offset="1" style="stop-color:#0071BB"/>
	</radialGradient>
	<path style="fill:url(#SVGID_00000132775921807129048810000006310606438960890814_);" d="M45,17.7c0,0,0.1,0,0.1,0
		c0.6,0,1.2-0.1,1.8-0.2c1-0.2,1.9-0.6,2.8-1.1c0.7-0.4,1.4-0.9,2.1-1.4c0.1-0.1,0.2-0.2,0.3-0.3c-0.1,0.3-1.3,1.2-2,1.7
		c-0.8,0.5-1.6,0.8-2.4,1.1C46.8,17.7,45.9,17.8,45,17.7z"/>
</g>
<g>
	<path class="st7" d="M2828.7,132c-0.2-1.4-0.3-2.7-0.3-4.1c0-1.3,0.1-2.7,0.3-4.1c1.4-0.2,2.7-0.3,4.1-0.3c1.3,0,2.7,0.1,4.1,0.3
		c0.2,1.4,0.3,2.8,0.3,4.1c0,1.4-0.1,2.8-0.3,4.1c-1.4,0.2-2.8,0.3-4.1,0.3C2831.5,132.4,2830.1,132.3,2828.7,132z"/>
	<path class="st7" d="M2844.2,92.1h8v40h-8V92.1z"/>
	<path class="st7" d="M2866.8,132h-7.7v-40h7.7v24.8l12.5-14.1h9.8l-13.6,14.3l13.6,15h-10.4l-11.8-14.2V132z"/>
</g>
<text transform="matrix(1 0 0 1 2620.927 152.7776)" style="fill:#1B92D0; font-family:'FHWASeriesB2000EX'; font-size:18px;">Solution for your needs and requirements</text>
<text transform="matrix(1 0 0 1 2611.637 132.0654)" style="fill:#1B92D0; font-family:'AeroRegularSWFTE'; font-size:39px;">Solutions</text>
<text transform="matrix(1 0 0 1 2545.8005 39.6874)" class="st7" style="font-family:'Aller-Bold'; font-size:51.9519px;">my</text>
<g>
	<path class="st8" d="M169.9,17.7h19.6v6.4h-18.4c-3.9,0-5.8,1.6-5.8,4.7c0,1.1,0.3,2,1,2.7c0.8,0.8,2,1.2,3.7,1.2h9.8
		c4.2,0,7.2,0.9,9,2.6c1.6,1.5,2.4,4,2.4,7.5c0,3.5-0.9,6.1-2.7,7.8c-2,1.9-5.3,2.8-9.8,2.8h-19.9v-6.4h18.7c2.3,0,3.8-0.4,4.7-1.2
		c0.7-0.7,1.1-1.8,1.1-3.4c0-1.1-0.3-1.8-0.8-2.3c-0.8-0.8-2.3-1.1-4.4-1.1h-8.8c-4.1,0-7.1-0.8-9-2.5s-2.9-4.3-2.9-7.8
		c0-3.5,0.9-6.1,2.7-7.9C162.2,18.7,165.4,17.7,169.9,17.7z"/>
	<path class="st8" d="M212.2,17c3.5,0,6.5,0.5,8.8,1.4c2.8,1.1,5,3,6.5,5.6c1.7,2.9,2.5,6.7,2.5,11.5c0,5.9-1.3,10.3-3.9,13.3
		c-2.9,3.4-7.6,5.1-13.9,5.1c-6.1,0-10.5-1.5-13.4-4.6c-2.9-3.1-4.3-7.7-4.3-14c0-4.6,0.8-8.3,2.4-11.1c1.4-2.6,3.5-4.5,6.3-5.7
		C205.7,17.6,208.7,17,212.2,17z M202.6,35.4c0,3.8,0.7,6.7,2,8.8c1.6,2.5,4.1,3.7,7.6,3.7c3.4,0,5.8-1.1,7.5-3.4
		c1.5-2.1,2.2-5.1,2.2-9c0-2.2-0.2-4-0.6-5.5c-0.5-2.1-1.4-3.7-2.7-4.8c-1.6-1.4-3.7-2.1-6.4-2.1c-3.2,0-5.6,1.1-7.3,3.3
		C203.4,28.5,202.6,31.5,202.6,35.4z"/>
	<path class="st8" d="M258.6,47.4v5.9h-9.5c-3.4,0-6-0.3-7.8-0.9c-2.3-0.8-4.1-2.1-5.2-4.1c-1.3-2.2-1.9-5.3-1.9-9.4V17.7h7.4v19.5
		c0,2.8,0.1,4.7,0.3,5.7c0.3,1.6,1,2.7,2.2,3.4c1.1,0.7,3,1,5.6,1H258.6z"/>
	<path class="st8" d="M262.5,39.3V17.7h7.4v21.4c0,2,0.2,3.5,0.5,4.6c0.4,1.4,1.1,2.5,2.2,3.2c1.2,0.8,3,1.2,5.3,1.2
		c2.8,0,4.8-0.6,6-1.7c1.3-1.3,2-3.7,2-7.2V17.7h7.4v21.5c0,3.3-0.3,5.8-1,7.6c-0.8,2.2-2.3,3.9-4.4,5c-2.3,1.2-5.6,1.8-9.9,1.8
		c-4.1,0-7.3-0.6-9.6-1.7c-2.2-1-3.7-2.7-4.6-4.9C262.9,45.2,262.5,42.6,262.5,39.3z"/>
	<path class="st8" d="M315.9,53.2h-7.7V24h-11.4v-6.2h30.6V24h-11.5V53.2z"/>
	<path class="st8" d="M331.1,17.7h7.8v35.5h-7.8V17.7z"/>
	<path class="st8" d="M361.7,17c3.5,0,6.5,0.5,8.8,1.4c2.8,1.1,5,3,6.5,5.6c1.7,2.9,2.5,6.7,2.5,11.5c0,5.9-1.3,10.3-3.9,13.3
		c-2.9,3.4-7.6,5.1-13.9,5.1c-6.1,0-10.5-1.5-13.4-4.6c-2.9-3.1-4.3-7.7-4.3-14c0-4.6,0.8-8.3,2.4-11.1c1.4-2.6,3.5-4.5,6.3-5.7
		C355.1,17.6,358.1,17,361.7,17z M352.1,35.4c0,3.8,0.7,6.7,2,8.8c1.6,2.5,4.1,3.7,7.6,3.7c3.4,0,5.8-1.1,7.5-3.4
		c1.5-2.1,2.2-5.1,2.2-9c0-2.2-0.2-4-0.6-5.5c-0.5-2.1-1.4-3.7-2.7-4.8c-1.6-1.4-3.7-2.1-6.4-2.1c-3.2,0-5.6,1.1-7.3,3.3
		C352.9,28.5,352.1,31.5,352.1,35.4z"/>
	<path class="st8" d="M392.2,53.2h-7.6V17.7h9.5l14.5,25.6l-0.3-25.6h7.5v35.5h-8.6l-15.2-26.8L392.2,53.2z"/>
</g>
<g>
	
		<linearGradient id="SVGID_00000165925623604340586810000015546852522378437273_" gradientUnits="userSpaceOnUse" x1="109.3336" y1="53.4006" x2="109.3336" y2="29.4776">
		<stop  offset="0" style="stop-color:#FAB84D"/>
		<stop  offset="1" style="stop-color:#F06A43"/>
	</linearGradient>
	<path style="fill:url(#SVGID_00000165925623604340586810000015546852522378437273_);" d="M92.1,30h5.7v3.2c2-2.5,4.5-3.7,7.3-3.7
		c1.5,0,2.8,0.3,3.9,0.9c1.1,0.6,2,1.5,2.7,2.8c1-1.2,2.1-2.2,3.3-2.8c1.2-0.6,2.5-0.9,3.8-0.9c1.7,0,3.2,0.3,4.4,1
		c1.2,0.7,2.1,1.7,2.7,3.1c0.4,1,0.6,2.6,0.6,4.8v15h-6.2V40c0-2.3-0.2-3.8-0.6-4.5c-0.6-0.9-1.5-1.3-2.6-1.3
		c-0.9,0-1.7,0.3-2.4,0.8c-0.8,0.5-1.3,1.3-1.7,2.3c-0.3,1-0.5,2.6-0.5,4.8v11.2h-6.2V40.6c0-2.3-0.1-3.7-0.3-4.4
		c-0.2-0.7-0.6-1.2-1-1.5c-0.5-0.3-1.1-0.5-1.9-0.5c-1,0-1.8,0.3-2.6,0.8c-0.8,0.5-1.3,1.3-1.6,2.2c-0.3,1-0.5,2.6-0.5,4.8v11.4
		h-6.2V30z"/>
	
		<linearGradient id="SVGID_00000004540165093682466640000011666718851097894299_" gradientUnits="userSpaceOnUse" x1="141.8041" y1="62.8954" x2="141.8041" y2="30.0063">
		<stop  offset="0" style="stop-color:#FAB84D"/>
		<stop  offset="1" style="stop-color:#F06A43"/>
	</linearGradient>
	<path style="fill:url(#SVGID_00000004540165093682466640000011666718851097894299_);" d="M129.8,30h6.6l5.6,16.6l5.5-16.6h6.4
		l-8.3,22.5l-1.5,4.1c-0.5,1.4-1.1,2.4-1.6,3.1c-0.5,0.7-1.1,1.3-1.7,1.8c-0.6,0.4-1.4,0.8-2.4,1c-0.9,0.2-2,0.4-3.2,0.4
		c-1.2,0-2.4-0.1-3.5-0.4l-0.6-4.8c1,0.2,1.8,0.3,2.6,0.3c1.4,0,2.5-0.4,3.2-1.3c0.7-0.8,1.2-1.9,1.6-3.2L129.8,30z"/>
</g>
<g>
	<defs>
		<rect id="SVGID_00000106826226196859620670000016289877270748596648_" x="421.3" y="46.3" width="6" height="7.2"/>
	</defs>
	
		<linearGradient id="SVGID_00000114778183504057061340000016745599247134293382_" gradientUnits="userSpaceOnUse" x1="424.2727" y1="53.4444" x2="424.2727" y2="46.281">
		<stop  offset="0" style="stop-color:#FAB84D"/>
		<stop  offset="1" style="stop-color:#F06A43"/>
	</linearGradient>
	
		<use xlink:href="#SVGID_00000106826226196859620670000016289877270748596648_"  style="overflow:visible;fill:url(#SVGID_00000114778183504057061340000016745599247134293382_);"/>
	<clipPath id="SVGID_00000065052729571201366930000002599002818826771077_">
		<use xlink:href="#SVGID_00000106826226196859620670000016289877270748596648_"  style="overflow:visible;"/>
	</clipPath>
	
		<linearGradient id="SVGID_00000165929154046127739230000007177388816068580772_" gradientUnits="userSpaceOnUse" x1="424.2727" y1="53.4444" x2="424.2727" y2="46.281">
		<stop  offset="0" style="stop-color:#FAB84D"/>
		<stop  offset="1" style="stop-color:#F06A43"/>
	</linearGradient>
	
		<rect x="421.3" y="46.3" style="clip-path:url(#SVGID_00000065052729571201366930000002599002818826771077_);fill:url(#SVGID_00000165929154046127739230000007177388816068580772_);" width="6" height="7.2"/>
</g>
<g>
	<defs>
		<path id="SVGID_00000147180749646014361910000006421068904785393570_" d="M431,25v22.9c0,1.9,0.5,3.4,1.6,4.4
			c1.1,1,2.6,1.5,4.6,1.5c1,0,2-0.1,3.1-0.3c1.1-0.2,2.1-0.6,3-1l-0.9-6c-0.3,0.2-0.6,0.3-1,0.4c-0.4,0.1-0.7,0.2-1,0.2
			c-1.3,0-1.9-0.8-1.9-2.3V25H431z"/>
	</defs>
	
		<linearGradient id="SVGID_00000005229194585619259250000010230177170186928567_" gradientUnits="userSpaceOnUse" x1="437.1028" y1="53.8325" x2="437.1028" y2="25.02">
		<stop  offset="0" style="stop-color:#FAB84D"/>
		<stop  offset="1" style="stop-color:#F06A43"/>
	</linearGradient>
	
		<use xlink:href="#SVGID_00000147180749646014361910000006421068904785393570_"  style="overflow:visible;fill:url(#SVGID_00000005229194585619259250000010230177170186928567_);"/>
	<clipPath id="SVGID_00000030449446060526392430000011336432980878691511_">
		<use xlink:href="#SVGID_00000147180749646014361910000006421068904785393570_"  style="overflow:visible;"/>
	</clipPath>
	
		<linearGradient id="SVGID_00000005979278403329387960000003207008962229024650_" gradientUnits="userSpaceOnUse" x1="437.1028" y1="53.8325" x2="437.1028" y2="25.02">
		<stop  offset="0" style="stop-color:#FAB84D"/>
		<stop  offset="1" style="stop-color:#F06A43"/>
	</linearGradient>
	
		<rect x="431" y="25" style="clip-path:url(#SVGID_00000030449446060526392430000011336432980878691511_);fill:url(#SVGID_00000005979278403329387960000003207008962229024650_);" width="12.3" height="28.8"/>
</g>
<g>
	<defs>
		<polygon id="SVGID_00000173839468865162694430000015921248739124301191_" points="445.2,25 445.2,53.4 452.6,53.4 452.6,47.6 
			454.1,46 458.7,53.4 466.6,53.4 458.8,41.9 465.9,33 458.1,33 452.6,40.6 452.6,25 		"/>
	</defs>
	
		<linearGradient id="SVGID_00000016077648838612168760000012238952129933184409_" gradientUnits="userSpaceOnUse" x1="455.8896" y1="53.4444" x2="455.8896" y2="25.02">
		<stop  offset="0" style="stop-color:#FAB84D"/>
		<stop  offset="1" style="stop-color:#F06A43"/>
	</linearGradient>
	
		<use xlink:href="#SVGID_00000173839468865162694430000015921248739124301191_"  style="overflow:visible;fill:url(#SVGID_00000016077648838612168760000012238952129933184409_);"/>
	<clipPath id="SVGID_00000161597535731427206330000007222027124660629633_">
		<use xlink:href="#SVGID_00000173839468865162694430000015921248739124301191_"  style="overflow:visible;"/>
	</clipPath>
	
		<linearGradient id="SVGID_00000150079230085360277910000003131200242784493713_" gradientUnits="userSpaceOnUse" x1="455.8896" y1="53.4444" x2="455.8896" y2="25.02">
		<stop  offset="0" style="stop-color:#FAB84D"/>
		<stop  offset="1" style="stop-color:#F06A43"/>
	</linearGradient>
	
		<rect x="445.2" y="25" style="clip-path:url(#SVGID_00000161597535731427206330000007222027124660629633_);fill:url(#SVGID_00000150079230085360277910000003131200242784493713_);" width="21.3" height="28.4"/>
</g>
<linearGradient id="SVGID_00000130619434949859676250000013672912683426560681_" gradientUnits="userSpaceOnUse" x1="24.9319" y1="16.7116" x2="33.8622" y2="16.7116">
	<stop  offset="0" style="stop-color:#F06A43"/>
	<stop  offset="1" style="stop-color:#FAB84D"/>
</linearGradient>
<circle style="fill:url(#SVGID_00000130619434949859676250000013672912683426560681_);" cx="29.4" cy="16.7" r="4.5"/>
<linearGradient id="SVGID_00000176032358276141004380000011033063474027852205_" gradientUnits="userSpaceOnUse" x1="57.3888" y1="15.4461" x2="66.3192" y2="15.4461">
	<stop  offset="0" style="stop-color:#F06A43"/>
	<stop  offset="1" style="stop-color:#FAB84D"/>
</linearGradient>
<circle style="fill:url(#SVGID_00000176032358276141004380000011033063474027852205_);" cx="61.9" cy="15.4" r="4.5"/>
<linearGradient id="SVGID_00000176745050631484114610000003489914650530298502_" gradientUnits="userSpaceOnUse" x1="11.4827" y1="25.8147" x2="24.3294" y2="25.8147">
	<stop  offset="0" style="stop-color:#F06A43"/>
	<stop  offset="1" style="stop-color:#FAB84D"/>
</linearGradient>
<circle style="fill:url(#SVGID_00000176745050631484114610000003489914650530298502_);" cx="17.9" cy="25.8" r="6.4"/>
<linearGradient id="SVGID_00000106120266636590149440000010855707937207720329_" gradientUnits="userSpaceOnUse" x1="66.7173" y1="23.2082" x2="77.0992" y2="23.2082">
	<stop  offset="0" style="stop-color:#F06A43"/>
	<stop  offset="1" style="stop-color:#FAB84D"/>
</linearGradient>
<circle style="fill:url(#SVGID_00000106120266636590149440000010855707937207720329_);" cx="71.9" cy="23.2" r="5.2"/>
<path class="st8" d="M1.6,33.5c0,0,12.6-2.1,20.9,6.5c0,0,4.5-18.3,21.9-20.1c7.4-0.8,22.4,1.5,23.9,18.8c0,0,7-10.2,14.5-10.8
	c0,0-9.1,7.6-13.2,16.6c-2.7,5.9-9.4,13.9-27.3,15.3c0,0,15.1-4.2,20.5-12.5c3.5-5.4,6.9-19.7-12.1-22.8
	c-0.6-0.1-20.9-3.9-23.4,17.4c0,0-1.3,16.7,8.1,21.9c7.8,4.3,12.6,8.8,31.5-2.3c0,0-10.7,15.7-29.3,8.6c-5.7-2.2-11.9-6.5-15.7-19.8
	C19.9,44.1,15.8,35.4,1.6,33.5z"/>
<g>
	<path class="st8" d="M203.9,83.3c-2.5,0-3.4-1.9-3.5-4.2h2.1c0,0.9,0.3,2.2,1.4,2.2c0.9,0,1.3-0.8,1.3-1.6c0-1.6-0.6-2.7-1.8-4.2
		c-1.3-1.5-2.5-2.7-2.5-4.8c0-1.9,1.1-3.7,3.2-3.7c2.3,0,3,1.7,3.2,3.7h-2.1c0-0.7-0.2-1.7-1.1-1.7c-0.9,0-1.2,0.9-1.2,1.7
		c0,1,0.7,1.8,2.1,3.3c1.9,2.1,2.3,4.1,2.3,5.7C207.3,81.5,206,83.3,203.9,83.3z"/>
	<path class="st8" d="M211.9,83.3c-2.4,0-3-3.1-3-6c0-3.2,0.3-6.1,3-6.1c2.4,0,2.8,2.7,2.8,6C214.7,80.1,214.1,83.3,211.9,83.3z
		 M212.7,77.5v-1.5c0-1.2-0.1-2.7-0.8-2.7c-0.9,0-1,1.5-1,2.7v1.5c0,1,0.1,3.7,1,3.7C212.6,81.2,212.7,78.5,212.7,77.5z"/>
	<path class="st8" d="M216.7,83V68.1l2-1.2V83H216.7z"/>
	<path class="st8" d="M224.7,83v-0.5c-0.3,0.5-0.8,0.8-1.3,0.8c-1,0-1.4-0.4-1.8-1.1c-0.5-1.2-0.5-3.7-0.5-4.8v-5.8h2v8
		c0,0.6,0,1.7,0.9,1.7c0.7,0,0.8-1,0.8-1.6v-8.1h2V83H224.7z"/>
	<path class="st8" d="M232.4,82.5c-0.4,0.5-0.7,0.7-1.1,0.7c-1.2,0-2.1-1.3-2.1-3v-7h-1.2v-1.8h1.2v-3.3l2-1.2v4.5h1.4v1.8h-1.4v7
		c0,0.6,0.3,0.9,0.7,0.9c0.3,0,0.5-0.2,0.8-0.6L232.4,82.5z"/>
	<path class="st8" d="M235,69c-0.6,0-1-0.5-1-1.1c0-0.5,0.5-1,1-1c0.6,0,1,0.5,1,1C236,68.5,235.5,69,235,69z M234,83V71.5h2V83H234
		z"/>
	<path class="st8" d="M241,83.3c-2.4,0-3-3.1-3-6c0-3.2,0.3-6.1,3-6.1c2.4,0,2.8,2.7,2.8,6C243.8,80.1,243.2,83.3,241,83.3z
		 M241.9,77.5v-1.5c0-1.2-0.1-2.7-0.8-2.7c-0.9,0-1,1.5-1,2.7v1.5c0,1,0.1,3.7,1,3.7C241.8,81.2,241.9,78.5,241.9,77.5z"/>
	<path class="st8" d="M249.5,83v-8c0-0.8,0-1.7-0.8-1.7c-0.8,0-0.8,1.1-0.8,1.7v8h-2V71.5h2V72c0.2-0.5,0.8-0.8,1.3-0.8
		c0.6,0,1.1,0.1,1.6,0.8c0.7,1,0.7,4.1,0.7,5.1V83H249.5z"/>
	<path class="st8" d="M261,73.3V83h-2v-9.7h-0.8v-1.8h0.8v-2.5c0-1.2,0.6-2,1.6-2c0.4,0,0.8,0,1.3,0.3V69c-0.1-0.2-0.2-0.3-0.4-0.3
		c-0.2,0-0.5,0.3-0.5,0.9v1.8h0.9v1.8H261z"/>
	<path class="st8" d="M266,83.3c-2.4,0-3-3.1-3-6c0-3.2,0.3-6.1,3-6.1c2.4,0,2.8,2.7,2.8,6C268.8,80.1,268.2,83.3,266,83.3z
		 M266.8,77.5v-1.5c0-1.2-0.1-2.7-0.8-2.7c-0.9,0-1,1.5-1,2.7v1.5c0,1,0.1,3.7,1,3.7C266.8,81.2,266.8,78.5,266.8,77.5z"/>
	<path class="st8" d="M274.8,74c-0.3-0.4-0.5-0.7-0.8-0.7c-0.8,0-1.1,0.9-1.1,2.3V83h-2V71.5h2V72c0.3-0.5,0.5-0.9,1.1-0.9
		c0.5,0,0.9,0.4,1.1,0.8L274.8,74z"/>
	<path class="st8" d="M284.4,87.4h-1.8l0.9-4.4l-2.8-11.6h1.8l1.9,7.5l1.7-7.5h1.9L284.4,87.4z"/>
	<path class="st8" d="M292.1,83.3c-2.4,0-3-3.1-3-6c0-3.2,0.3-6.1,3-6.1c2.4,0,2.8,2.7,2.8,6C294.9,80.1,294.3,83.3,292.1,83.3z
		 M292.9,77.5v-1.5c0-1.2-0.1-2.7-0.8-2.7c-0.9,0-1,1.5-1,2.7v1.5c0,1,0.1,3.7,1,3.7C292.9,81.2,292.9,78.5,292.9,77.5z"/>
	<path class="st8" d="M300.4,83v-0.5c-0.3,0.5-0.8,0.8-1.3,0.8c-1,0-1.4-0.4-1.8-1.1c-0.5-1.2-0.5-3.7-0.5-4.8v-5.8h2v8
		c0,0.6,0,1.7,0.9,1.7c0.7,0,0.8-1,0.8-1.6v-8.1h2V83H300.4z"/>
	<path class="st8" d="M308.9,74c-0.3-0.4-0.5-0.7-0.8-0.7c-0.8,0-1.1,0.9-1.1,2.3V83h-2V71.5h2V72c0.3-0.5,0.5-0.9,1.1-0.9
		c0.5,0,0.9,0.4,1.1,0.8L308.9,74z"/>
	<path class="st8" d="M319.4,83v-8c0-0.8,0-1.7-0.8-1.7c-0.8,0-0.8,1.1-0.8,1.7v8h-2V71.5h2V72c0.2-0.5,0.8-0.8,1.3-0.8
		c0.6,0,1.1,0.1,1.6,0.8c0.7,1,0.7,4.1,0.7,5.1V83H319.4z"/>
	<path class="st8" d="M325.2,78.4c0,2.2,0.3,2.8,1.1,2.8c0.4,0,0.7-0.3,1.1-1.5l1.3,1.8c-0.4,1.1-1.2,1.7-2.1,1.7
		c-2.5,0-3.3-2.4-3.3-6c0-3.7,0.7-6.1,2.9-6.1c2.4,0,2.8,3.6,2.8,6.1v1.2H325.2z M326.2,73.3c-0.7,0-0.9,0.7-0.9,3h1.9
		C327.2,74,326.8,73.3,326.2,73.3z"/>
	<path class="st8" d="M332.2,78.4c0,2.2,0.3,2.8,1.1,2.8c0.4,0,0.7-0.3,1.1-1.5l1.3,1.8c-0.4,1.1-1.2,1.7-2.1,1.7
		c-2.5,0-3.3-2.4-3.3-6c0-3.7,0.7-6.1,2.9-6.1c2.4,0,2.8,3.6,2.8,6.1v1.2H332.2z M333.2,73.3c-0.7,0-0.9,0.7-0.9,3h1.9
		C334.2,74,333.8,73.3,333.2,73.3z"/>
	<path class="st8" d="M341.2,83v-0.4c-0.2,0.3-0.5,0.7-1.2,0.7c-2.5,0-2.7-4.4-2.7-6.1c0-1.7,0.2-5.9,2.6-5.9c0.4,0,0.8,0.1,1.2,0.3
		v-3.3l2-1.2V83H341.2z M341.1,74.7c0-0.5,0-1.5-0.8-1.5c-0.2,0-0.3,0-0.5,0.2c-0.5,0.4-0.5,2.9-0.5,3.6c0,1.8,0,3.2,0.4,3.7
		c0.2,0.2,0.3,0.4,0.6,0.4c0.7,0,0.8-1.2,0.8-1.7v-0.1V74.7z"/>
	<path class="st8" d="M347.1,83.3c-0.8,0-1.6-0.2-2.3-1.2l0.6-2.3c0.5,1.2,1.1,1.7,1.6,1.7c0.7,0,1-0.5,1-1.4c0-0.4-0.4-1.6-1.4-2.5
		c-1.2-1-1.8-1.7-1.8-3.4c0-1.5,0.8-2.9,2.4-2.9c0.9,0,1.6,0.5,2.3,1.4l-0.6,2.1c-0.7-1.3-1.1-1.7-1.5-1.7c-0.4,0-0.6,0.5-0.6,1
		c0,1,1.1,1.9,1.7,2.5c1,1,1.4,2.1,1.4,3.4C349.9,82,348.8,83.3,347.1,83.3z"/>
	<path class="st8" d="M359.9,83v-0.3c-0.3,0.4-0.9,0.6-1.3,0.6c-1.8,0-2.7-2.3-2.7-4.1c0-1.6,0.8-3.9,2.8-3.9c0.4,0,0.7,0.1,1.1,0.2
		v-0.8c0-0.7-0.1-1.2-0.9-1.2c-0.9,0-1.6,1-2,1.7l-0.5-2.5c0.6-0.7,1.4-1.4,2.4-1.4c2.4,0,2.9,2.1,2.9,4.1V83H359.9z M359.7,77.7
		c0-0.3-0.7-0.4-0.9-0.4c-0.9,0-1,1.2-1,1.8c0,0.9,0,2.1,1.1,2.1c0.7,0,0.8-0.5,0.8-1.1V77.7z"/>
	<path class="st8" d="M367.7,83v-8c0-0.8,0-1.7-0.8-1.7c-0.8,0-0.8,1.1-0.8,1.7v8h-2V71.5h2V72c0.2-0.5,0.8-0.8,1.3-0.8
		c0.6,0,1.1,0.1,1.6,0.8c0.7,1,0.7,4.1,0.7,5.1V83H367.7z"/>
	<path class="st8" d="M375.4,83v-0.4c-0.2,0.3-0.5,0.7-1.2,0.7c-2.5,0-2.7-4.4-2.7-6.1c0-1.7,0.2-5.9,2.6-5.9c0.4,0,0.8,0.1,1.2,0.3
		v-3.3l2-1.2V83H375.4z M375.4,74.7c0-0.5,0-1.5-0.8-1.5c-0.2,0-0.3,0-0.5,0.2c-0.5,0.4-0.5,2.9-0.5,3.6c0,1.8,0,3.2,0.4,3.7
		c0.2,0.2,0.3,0.4,0.6,0.4c0.7,0,0.8-1.2,0.8-1.7v-0.1V74.7z"/>
	<path class="st8" d="M389,74c-0.3-0.4-0.5-0.7-0.8-0.7c-0.8,0-1.1,0.9-1.1,2.3V83h-2V71.5h2V72c0.3-0.5,0.5-0.9,1.1-0.9
		c0.5,0,0.9,0.4,1.1,0.8L389,74z"/>
	<path class="st8" d="M392.2,78.4c0,2.2,0.3,2.8,1.1,2.8c0.4,0,0.7-0.3,1.1-1.5l1.3,1.8c-0.4,1.1-1.2,1.7-2.1,1.7
		c-2.5,0-3.3-2.4-3.3-6c0-3.7,0.7-6.1,2.9-6.1c2.4,0,2.8,3.6,2.8,6.1v1.2H392.2z M393.2,73.3c-0.7,0-0.9,0.7-0.9,3h1.9
		C394.2,74,393.8,73.3,393.2,73.3z"/>
	<path class="st8" d="M401.1,87.4v-4.8c0,0-0.4,0.6-1.2,0.6c-0.8,0-2.6-0.2-2.6-5.4c0-3.8,0.1-6.6,2.7-6.6c0.8,0,1.2,0.7,1.2,0.7
		v-0.4h1.9v14.6L401.1,87.4z M401.1,74.8c0-0.6,0-1.6-0.8-1.6c-0.9,0-1,1.5-1,4.1c0,3,0.2,3.7,1,3.7c0.7,0,0.8-0.9,0.8-1.4V74.8z"/>
	<path class="st8" d="M409.1,83v-0.5c-0.3,0.5-0.8,0.8-1.3,0.8c-1,0-1.4-0.4-1.8-1.1c-0.5-1.2-0.5-3.7-0.5-4.8v-5.8h2v8
		c0,0.6,0,1.7,0.9,1.7c0.7,0,0.8-1,0.8-1.6v-8.1h2V83H409.1z"/>
	<path class="st8" d="M414.6,69c-0.6,0-1-0.5-1-1.1c0-0.5,0.5-1,1-1c0.6,0,1,0.5,1,1C415.7,68.5,415.2,69,414.6,69z M413.6,83V71.5
		h2V83H413.6z"/>
	<path class="st8" d="M422.1,74c-0.3-0.4-0.5-0.7-0.8-0.7c-0.8,0-1.1,0.9-1.1,2.3V83h-2V71.5h2V72c0.3-0.5,0.5-0.9,1.1-0.9
		c0.5,0,0.9,0.4,1.1,0.8L422.1,74z"/>
	<path class="st8" d="M425.4,78.4c0,2.2,0.3,2.8,1.1,2.8c0.4,0,0.7-0.3,1.1-1.5l1.3,1.8c-0.4,1.1-1.2,1.7-2.1,1.7
		c-2.5,0-3.3-2.4-3.3-6c0-3.7,0.7-6.1,2.9-6.1c2.4,0,2.8,3.6,2.8,6.1v1.2H425.4z M426.3,73.3c-0.7,0-0.9,0.7-0.9,3h1.9
		C427.3,74,427,73.3,426.3,73.3z"/>
	<path class="st8" d="M438.1,83v-8.1c0-1.1-0.1-1.6-0.7-1.6c-0.6,0-0.8,0.2-0.8,1.6V83h-2v-8.1c0-1.1-0.1-1.6-0.8-1.6
		c-0.7,0-0.8,0.3-0.8,1.6V83h-2V71.5h2v0.6c0.2-0.6,0.8-0.9,1.3-0.9c1.3,0,1.6,0.3,2,1.1c0.3-0.8,1-1.1,1.7-1.1c2,0,2.3,2,2.3,3.7
		V83H438.1z"/>
	<path class="st8" d="M444,78.4c0,2.2,0.3,2.8,1.1,2.8c0.4,0,0.7-0.3,1.1-1.5l1.3,1.8c-0.4,1.1-1.2,1.7-2.1,1.7
		c-2.5,0-3.3-2.4-3.3-6c0-3.7,0.7-6.1,2.9-6.1c2.4,0,2.8,3.6,2.8,6.1v1.2H444z M444.9,73.3c-0.7,0-0.9,0.7-0.9,3h1.9
		C445.9,74,445.6,73.3,444.9,73.3z"/>
	<path class="st8" d="M453.1,83v-8c0-0.8,0-1.7-0.8-1.7c-0.8,0-0.8,1.1-0.8,1.7v8h-2V71.5h2V72c0.2-0.5,0.8-0.8,1.3-0.8
		c0.6,0,1.1,0.1,1.6,0.8c0.7,1,0.7,4.1,0.7,5.1V83H453.1z"/>
	<path class="st8" d="M460.7,82.5c-0.4,0.5-0.7,0.7-1.1,0.7c-1.2,0-2.1-1.3-2.1-3v-7h-1.2v-1.8h1.2v-3.3l2-1.2v4.5h1.4v1.8h-1.4v7
		c0,0.6,0.3,0.9,0.7,0.9c0.3,0,0.5-0.2,0.8-0.6L460.7,82.5z"/>
	<path class="st8" d="M463.7,83.3c-0.8,0-1.6-0.2-2.3-1.2l0.6-2.3c0.5,1.2,1.1,1.7,1.6,1.7c0.7,0,1-0.5,1-1.4c0-0.4-0.4-1.6-1.4-2.5
		c-1.2-1-1.8-1.7-1.8-3.4c0-1.5,0.8-2.9,2.4-2.9c0.9,0,1.6,0.5,2.3,1.4l-0.6,2.1c-0.7-1.3-1.1-1.7-1.5-1.7c-0.4,0-0.6,0.5-0.6,1
		c0,1,1.1,1.9,1.7,2.5c1,1,1.4,2.1,1.4,3.4C466.5,82,465.3,83.3,463.7,83.3z"/>
</g>
<g>
	
		<linearGradient id="SVGID_00000082370727009913787400000010832585798537603234_" gradientUnits="userSpaceOnUse" x1="155.4702" y1="72.2386" x2="179.4573" y2="72.2386">
		<stop  offset="0" style="stop-color:#FAB84D"/>
		<stop  offset="1" style="stop-color:#F06A43"/>
	</linearGradient>
	<path style="fill:url(#SVGID_00000082370727009913787400000010832585798537603234_);" d="M155.5,77.4c0.4,0,0.7,0,1.1,0
		c1,0,2.1,0,3.1,0c1.1,0,2.3,0,3.4-0.1c0.9-0.1,1.8-0.3,2.8-0.4c0.8-0.2,1.6-0.3,2.4-0.5c0.8-0.3,1.6-0.6,2.4-0.9
		c0.6-0.3,1.2-0.7,1.8-1.1c0.6-0.5,1-1,1.4-1.7c0.6-1.1,0.7-2.4,0.5-3.6c-0.2-1-1.2-1.6-2.2-1.3c-1,0.3-1.7,1-2.3,1.8
		c-0.6,0.8-1.1,1.7-1.4,2.6c-0.2,0.5-0.3,1.1-0.4,1.7c-0.1,0.5-0.1,1-0.2,1.5c0,0.1-0.2,0.2-0.3,0.2c-1,0.2-2.1,0.4-3.1,0.6
		c-0.7,0.1-1.4,0.2-2,0.3c-0.1,0-0.2,0-0.3,0c0.3-1.6,1-3,1.8-4.3c0.6-1,1.4-1.9,2.2-2.7c0.9-0.9,1.9-1.7,3-2.3
		c0.6-0.3,1.2-0.6,1.9-0.8c1.4-0.5,2.9-0.6,4.3-0.4c0.6,0.1,1.2,0.3,1.8,0.6c0.9,0.5,1.6,1.1,1.9,1.9c0.5,1.1,0.5,2.2,0,3.3
		c-0.5,1.3-1.5,2.2-2.5,2.9c-0.9,0.6-1.9,1.2-2.9,1.6c-0.9,0.5-1.9,0.8-2.9,1.2c-0.7,0.2-1.3,0.5-2,0.7c-2.7,0.8-5.4,1.2-8.2,1.1
		c-1.2,0-2.3-0.3-3.4-0.7C156.6,78.1,156,77.8,155.5,77.4z"/>
	<path class="st8" d="M162.1,79.6c2.2-0.1,4.3-0.3,6.3-1c0.2,1.1,0.6,2.2,1.3,3.1c0.6,0.7,1.3,1.2,2.2,1.5c0.6,0.2,1.3,0.3,1.9,0.3
		c1-0.1,2-0.1,2.9-0.3c1-0.3,2.1-0.5,3.1-0.8c0.5-0.1,1-0.4,1.5-0.6c0.1,0,0.2-0.1,0.3-0.1c0,0.1-0.1,0.1-0.1,0.2
		c-1.1,0.9-2.3,1.9-3.4,2.8c-1,0.8-2.1,1.5-3.3,2c-0.7,0.3-1.4,0.6-2.2,0.7c-1.2,0.2-2.4,0.4-3.6,0.2c-0.4-0.1-0.8,0-1.2-0.1
		c-0.5-0.1-1.1-0.4-1.6-0.6c-1-0.4-1.8-1.1-2.5-1.9c-0.7-0.8-1.1-1.8-1.3-2.8C162.3,81.2,162.3,80.4,162.1,79.6z"/>
</g>
<linearGradient id="SVGID_00000052086269770499391920000016512536939443816614_" gradientUnits="userSpaceOnUse" x1="182.5819" y1="73.7642" x2="195.3444" y2="73.7642">
	<stop  offset="0" style="stop-color:#FAB84D"/>
	<stop  offset="1" style="stop-color:#F06A43"/>
</linearGradient>
<path style="fill:url(#SVGID_00000052086269770499391920000016512536939443816614_);" d="M182.6,75.7c0-0.6,0-1.1,0-1.8
	c2.8,0,5.5,0,8.3,0c0-0.7,0.1-1.3,0.1-2.1c1.5,1.3,2.9,2.5,4.4,3.9C191,75.7,186.8,75.7,182.6,75.7z"/>
<path class="st8" d="M195.5,77.2c0,0.6,0,1.1,0,1.8c-2.8,0-5.5,0-8.3,0c0,0.7-0.1,1.3-0.1,2.1c-1.5-1.3-2.9-2.5-4.4-3.9
	C187.1,77.2,191.2,77.2,195.5,77.2z"/>
<g>
	
		<linearGradient id="SVGID_00000070806466875308708890000001753821157916862871_" gradientUnits="userSpaceOnUse" x1="25.5493" y1="52.2131" x2="81.8457" y2="52.2131">
		<stop  offset="0" style="stop-color:#FAB84D"/>
		<stop  offset="1" style="stop-color:#F06A43"/>
	</linearGradient>
	<path style="fill:url(#SVGID_00000070806466875308708890000001753821157916862871_);" d="M79.5,82.3c-1.3-0.9-1.1-0.9-1.4-2.3
		c-0.5-2.4-0.8-4.3-0.5-6c0.2-1.1,1.4-2.8,1.8-3.6c0.5-1.1,1-2.2,1.3-3.3c0.3-1.4-0.6-2.5-1.9-2.8c-1.1-0.2-2,0.4-2.4,1.9
		c-0.4,1.7-0.6,3.5-0.9,5.3c-0.4,2-1.3,3.6-3.2,4.4c-1.3,0.6-2.6,0.8-3.7-0.3c-1.1-1.1-1.3-2.5-0.9-4c0.4-1.3,1.4-2,2.6-2.6
		c3.3-1.5,3.6-4.1,0.7-6.3c-1-0.8-2.1-1.1-3.3-0.7c-0.9,0.4-1.9,0.7-2.8,1.2c-4.1,2.4-8.4,4.5-13.2,5.5c-13.6,3-21.8-5.9-24.5-14.7
		c-0.6-2-1.2-4-1.4-6c-0.2-2-0.4-4-0.2-6c0.1-0.9,0.2-2,0.2-2.2c1.6-8.2,7.7-14,14.5-16.4c0.8-0.3,3.6-0.9,4.4-1.1
		c1.7-0.2,3.5-0.2,5.1,0c1.6,0.2,3.7,0.7,5.2,1.2c5.7,1.9,9,5.9,10.1,12c1,5.2-0.4,9.9-3.9,13.9c-3.2,3.6-6.9,6.7-11.4,8.7
		c-1.7,0.7-3.5,1.3-5.3,1.6c-5.4,0.9-9.2-1.6-10.7-6.9c-0.8-3-0.7-5.9,0.3-8.8c1.7-4.8,4.6-8.7,8.8-11.5c2.6-1.8,5.6-2.2,8.6-1.8
		c3.7,0.5,5.3,3.1,4.5,6.8c-0.7,3-2.6,4.9-5.2,6.3c-3.1,1.6-6.5,2.3-10,2.5c-0.9,0.1-1.2,0.4-1.5,1.2c-1,3.6,1.3,6.9,5.3,7.5
		c9.4,1.4,17.9-5.9,19.1-13.8c0.8-5.6-1.5-9.9-5.9-13.2c-5.4-4-11.3-3.9-17.2-1.8c-8.9,3.1-14,11.7-12.9,21.2
		c0.5,4.2,1.7,8.1,4,11.7c4.4,6.7,12.5,9.3,21.6,7.4c4.3-0.9,7.8-2.7,11.9-4.8c1.9-0.8,3.7-1.4,5.7-0.2c1.7,1,2.8,2.6,3.1,4.6
		c0.2,1.6-0.6,2.8-2,3.6c-0.6,0.3-1.4,0.5-1.9,1c-0.6,0.6-1.3,1.3-1.5,2.1c-0.4,2,1.1,3.1,3,2.4c2-0.8,2.6-2.6,2.9-4.6
		c0.2-1.5,0.3-2.9,0.7-4.4c0.5-2,1.9-3,3.5-2.8c2,0.3,3.4,2,3,4c-0.3,1.4-0.9,2.7-1.5,4c-0.3,0.7-1.1,2.2-1.4,3
		C78.2,76.1,80.1,82.7,79.5,82.3z"/>
</g>
<path class="st21" d="M41.6,39c1.8-2.8,7.2-7.7,9-4.8c0.6,1,0.6,3.7-2.5,6.6c-4.1,3.7-7.6,2.5-7.6,2.5S40.1,41.4,41.6,39z"/>
<g>
	<path class="st22" d="M78.6,79L78.6,79c3,0,5.4,2,6.3,4.7c0.2,0.7,0.4,1.4,0.4,2.1v2.9l-13.4,0l0-2.2l0.4-0.8
		c0.1-0.3-0.4-0.6-0.4-0.8c0.1-0.4,1.3-0.7,1.4-1.1c0.2-0.7-0.2-1.5,0.2-2.1c0.8-1.1,1.7-1.9,2.9-2.3c0.2-0.1,0.3-0.1,0.5-0.2
		C77.5,79.1,78.1,79,78.6,79z"/>
	<path class="st23" d="M85.3,88.8h-6.7h-6.7v6.8c0,1.9,0.8,3.7,2,4.9c1.2,1.3,2.9,2.1,4.7,2.1c1.8,0,3.5-0.8,4.7-2.1
		c1.2-1.3,2-3,2-4.9V88.8z"/>
	<path class="st23" d="M78.6,81.6L78.6,81.6c0.3,0,0.6,0.3,0.6,0.6v3.2c0,0.3-0.3,0.6-0.6,0.6h0c-0.3,0-0.6-0.3-0.6-0.6v-3.2
		C78,81.9,78.3,81.6,78.6,81.6z"/>
	<path class="st24" d="M76.9,86.9v-7.1c0,0,0,0,0,0c0-0.1,0-0.2,0-0.3c0,0,0,0,0,0c0-0.1,0-0.1,0.1-0.2c-1.2,0.3-2.3,1-3.1,1.8
		c-1.2,1.3-2,3-2,4.9V87v0.7h5.2C76.9,87.5,76.9,87.2,76.9,86.9z"/>
	<path class="st24" d="M85.3,85.9c0-1.9-0.8-3.7-2-4.9c-0.8-0.9-1.9-1.5-3.1-1.8c0.1,0.2,0.1,0.4,0.1,0.6v7.1c0,0.3-0.1,0.6-0.2,0.8
		h5.2V85.9z"/>
</g>
</svg>
